<svg id="Слой_1" enable-background="new 0 0 300 300" height="512" viewBox="0 0 300 300" width="512" xmlns="http://www.w3.org/2000/svg"><g><path d="m297.153 189.702c0-5.231-3.975-9.504-9.054-10.081v-68.316c5.08-.577 9.054-4.853 9.054-10.104 0-5.624-4.575-10.199-10.199-10.199h-32.813v-11.467c15.171-1.167 27.166-13.884 27.166-29.383 0-16.264-13.203-29.496-29.432-29.496-16.23 0-29.433 13.232-29.433 29.496 0 15.498 11.996 28.216 27.167 29.383v11.467h-52.065v-6.271c1.62 1.088 3.565 1.726 5.657 1.726 5.62 0 10.191-4.579 10.191-10.209v-8.394c0-2.737-1.121-5.4-3.074-7.305l-54.489-53.256c-3.267-3.192-8.387-3.191-11.656.001l-54.486 53.254c-1.954 1.907-3.075 4.57-3.075 7.307v8.394c0 5.629 4.57 10.209 10.189 10.209 2.092 0 4.037-.638 5.657-1.726v94.773h-43.009v-9.086h14.712c9.363 0 16.982-7.633 16.982-17.016 0-7.569-4.571-14.07-11.32-16.408v-10.821c0-9.383-7.617-17.016-16.98-17.016h-11.32c-9.363 0-16.982 7.633-16.982 17.016v10.821c-6.748 2.338-11.318 8.839-11.318 16.408 0 9.383 7.617 17.016 16.98 17.016h14.713v9.086h-41.869c-5.624 0-10.199 4.574-10.199 10.217 0 4.423 2.847 8.159 6.791 9.57v95.942c0 1.252 1.015 2.267 2.267 2.267h278.453c3.746 0 6.794-3.053 6.794-6.805v-11.346c0-3.753-3.048-6.805-6.794-6.805h-2.261v-72.737c5.08-.58 9.055-4.855 9.055-10.106zm-70.179-139.55c0-13.765 11.171-24.963 24.9-24.963 13.73 0 24.899 11.198 24.899 24.963 0 12.999-9.963 23.697-22.633 24.85v-10.295l10.657-10.685c.884-.886.882-2.321-.004-3.206-.887-.882-2.321-.882-3.206.004l-7.447 7.467v-17.211c0-1.252-1.015-2.267-2.267-2.267s-2.267 1.015-2.267 2.267v17.211l-7.448-7.467c-.883-.886-2.319-.886-3.206-.004-.886.884-.887 2.32-.004 3.206l10.658 10.685v10.295c-12.668-1.153-22.632-11.851-22.632-24.85zm-186.771 115.734c-6.863 0-12.447-5.6-12.447-12.483 0-6.08 3.928-11.217 9.552-12.491 1.033-.234 1.766-1.151 1.766-2.211v-12.528c0-6.883 5.584-12.483 12.449-12.483h11.321c6.863 0 12.447 5.6 12.447 12.483v12.528c0 1.059.733 1.977 1.766 2.211 5.626 1.274 9.554 6.411 9.554 12.491 0 6.883-5.584 12.483-12.449 12.483h-14.713v-12.677l10.657-10.686c.884-.886.882-2.321-.004-3.206-.886-.883-2.321-.881-3.206.004l-7.447 7.468v-17.212c0-1.252-1.015-2.267-2.267-2.267s-2.267 1.015-2.267 2.267v17.211l-7.448-7.467c-.884-.885-2.32-.887-3.206-.004-.886.884-.887 2.32-.004 3.206l10.658 10.684v12.679zm252.416 23.836c0 3.124-2.541 5.666-5.666 5.666h-1.122-88.288v-11.35h89.41c3.125 0 5.666 2.54 5.666 5.684zm-9.054-10.217h-86.021v-68.085h86.021zm-86.021 20.416h86.021v72.621h-86.021zm0-104.386h89.41c3.124 0 5.666 2.541 5.666 5.686 0 3.124-2.541 5.666-5.666 5.666h-1.122-88.288zm-100.744-13.611c-3.119 0-5.656-2.546-5.656-5.676v-8.394c0-1.522.622-3.003 1.71-4.064l54.487-53.255c1.491-1.456 3.828-1.457 5.319-.001l54.489 53.258c1.087 1.059 1.709 2.539 1.709 4.062v8.394c0 3.129-2.538 5.676-5.658 5.676-3.119 0-5.656-2.546-5.656-5.676v-7.941c0-.129-.053-.24-.073-.362-.028-.172-.036-.349-.103-.509-.116-.277-.283-.526-.492-.734l-45.275-45.198c-.883-.883-2.319-.883-3.202 0l-45.276 45.2c-.018.018-.024.044-.042.062-.183.195-.341.416-.446.666-.115.275-.178.572-.178.875v7.951c-.005 3.125-2.541 5.666-5.657 5.666zm-89.419 107.778c0-3.123 2.541-5.664 5.666-5.664h89.41v11.35h-89.41c-3.124 0-5.666-2.541-5.666-5.686zm6.791 10.219h88.285v93.046h-13.577v-15.889-18.153-18.154s0 0 0-.001c0 0 0 0 0-.001v-18.153c0-1.252-1.015-2.267-2.267-2.267h-56.596c-1.252 0-2.267 1.015-2.267 2.267v18.153.001.001 18.154 18.153 15.889h-13.578zm18.112 38.582v-13.62h52.063v13.62zm0 4.535h52.063v13.621h-52.063zm0 18.154h52.063v13.62h-52.063zm0 31.775v-13.623h52.063v13.623zm90.554 0v-63.545h24.896v63.545zm29.429 0v-63.545h24.897v63.545zm40.743 0h-11.312v-65.811c0-1.252-1.015-2.267-2.267-2.267h-58.86c-1.252 0-2.267 1.015-2.267 2.267v65.811h-11.314l.001-223.72 43.009-42.936 43.01 42.937zm99.609-13.619v11.346c0 1.253-1.014 2.272-2.261 2.272h-92.816v-15.891h92.816c1.247.001 2.261 1.021 2.261 2.273z"/><path d="m269.984 211.273h-58.86c-1.252 0-2.267 1.015-2.267 2.267v45.385c0 1.252 1.015 2.267 2.267 2.267h58.86c1.252 0 2.267-1.015 2.267-2.267v-45.385c-.001-1.252-1.016-2.267-2.267-2.267zm-56.593 4.533h24.897v40.852h-24.897zm54.326 40.853h-24.896v-40.852h24.896z"/><path d="m211.124 170.419h29.425c.002 0 .003.001.005.001s.003-.001.005-.001h29.424c1.252 0 2.267-1.015 2.267-2.267v-45.384c0-1.252-1.015-2.267-2.267-2.267h-58.86c-1.252 0-2.267 1.015-2.267 2.267v45.384c.002 1.252 1.017 2.267 2.268 2.267zm56.593-4.533h-24.896v-40.851h24.896zm-54.326-40.851h24.897v40.851h-24.897z"/><path d="m131.888 79.616v15.922c0 1.252 1.015 2.267 2.267 2.267h31.694c1.252 0 2.267-1.015 2.267-2.267v-15.922c0-9.989-8.126-18.114-18.113-18.114-9.99 0-18.115 8.126-18.115 18.114zm18.113-13.581c7.489 0 13.58 6.093 13.58 13.581v13.655h-27.161v-13.655c.001-7.488 6.092-13.581 13.581-13.581z"/><path d="m152.262 121.604v32.935c0 1.252 1.015 2.267 2.267 2.267h24.902c1.252 0 2.267-1.015 2.267-2.267v-32.935c0-8.115-6.602-14.716-14.717-14.716-8.117 0-14.719 6.601-14.719 14.716zm24.902 0v30.668h-20.369v-30.668c0-5.615 4.569-10.183 10.185-10.183 5.615 0 10.184 4.569 10.184 10.183z"/><path d="m133.02 106.888c-8.115 0-14.716 6.601-14.716 14.716v32.935c0 1.252 1.015 2.267 2.267 2.267h24.902c1.252 0 2.267-1.015 2.267-2.267v-32.935c-.001-8.115-6.604-14.716-14.72-14.716zm10.186 45.384h-20.369v-30.668c0-5.615 4.569-10.183 10.185-10.183s10.184 4.568 10.184 10.183z"/><path d="m166.98 163.619c-8.116 0-14.718 6.602-14.718 14.718v32.933c0 1.252 1.015 2.267 2.267 2.267h24.902c1.252 0 2.267-1.015 2.267-2.267v-32.933c-.001-8.116-6.603-14.718-14.718-14.718zm10.184 45.384h-20.369v-30.666c0-5.616 4.569-10.185 10.185-10.185s10.184 4.569 10.184 10.185z"/><path d="m133.02 163.619c-8.115 0-14.716 6.602-14.716 14.718v32.933c0 1.252 1.015 2.267 2.267 2.267h24.902c1.252 0 2.267-1.015 2.267-2.267v-32.933c-.001-8.116-6.604-14.718-14.72-14.718zm10.186 45.384h-20.369v-30.666c0-5.616 4.569-10.185 10.185-10.185s10.184 4.569 10.184 10.185z"/><path d="m18.698 54.688h63.387c1.252 0 2.267-1.015 2.267-2.267s-1.015-2.267-2.267-2.267h-63.387c-3.239 0-6.335-1.413-8.495-3.875-2.191-2.499-3.157-5.699-2.721-9.009.739-5.595 5.78-9.814 11.725-9.814h17.602c1.252 0 2.267-1.015 2.267-2.267 0-10.011 8.123-18.157 18.108-18.157h4.56c9.967 0 18.076 8.131 18.076 18.157 0 1.252 1.015 2.267 2.267 2.267h29.431c1.252 0 2.267-1.015 2.267-2.267s-1.015-2.267-2.267-2.267h-27.275c-1.124-11.447-10.786-20.422-22.501-20.422h-4.56c-11.72 0-21.39 8.973-22.529 20.423h-15.446c-8.21 0-15.183 5.913-16.219 13.754-.601 4.557.787 9.146 3.808 12.591 3.019 3.445 7.358 5.42 11.902 5.42z"/><path d="m14.18 86.458h42.993c6.249 0 11.333-5.084 11.333-11.355 0-6.248-5.084-11.331-11.333-11.331h-42.993c-6.249 0-11.333 5.083-11.333 11.353 0 6.249 5.084 11.333 11.333 11.333zm0-18.153h42.993c3.749 0 6.8 3.05 6.8 6.82 0 3.749-3.051 6.8-6.8 6.8h-42.993c-3.75 0-6.8-3.051-6.8-6.822.001-3.748 3.05-6.798 6.8-6.798z"/></g></svg>