<svg id="Capa_1" enable-background="new 0 0 512 512" height="512" viewBox="0 0 512 512" width="512" xmlns="http://www.w3.org/2000/svg"><g><g><path d="m188.3 82.581h-6.623c0-9.109-7.407-16.516-16.516-16.516h-82.58c-9.109 0-16.516 7.407-16.516 16.516v24.774c0 16.169 6.689 30.786 17.425 41.29h-17.425v16.516h115.613v-16.516h-17.425c2.932-2.874 5.566-6.045 7.837-9.48l21.388-4.278c12.305-2.461 21.231-13.353 21.231-25.897.001-14.559-11.85-26.409-26.409-26.409zm-23.139 24.774c0 22.767-18.523 41.29-41.29 41.29s-41.29-18.523-41.29-41.29v-24.774h82.581v24.774zm25.08 11.338-10.182 2.04c1.016-4.302 1.619-8.77 1.619-13.378v-8.258h6.623c5.45 0 9.893 4.443 9.893 9.893 0 4.699-3.345 8.778-7.953 9.703z"/><path d="m82.581 33.032h16.516v16.516h-16.516z"/><path d="m115.613 33.032h16.516v16.516h-16.516z"/><path d="m148.645 33.032h16.516v16.516h-16.516z"/><path d="m478.968 363.355v-132.129h16.516c9.109 0 16.516-7.407 16.516-16.516v-115.613c0-9.109-7.408-16.516-16.516-16.516h-247.742v-66.065c0-9.109-7.408-16.516-16.516-16.516h-181.678c-9.108 0-16.516 7.407-16.516 16.516v66.065h-16.516c-9.109 0-16.516 7.407-16.516 16.516v115.613c0 9.109 7.407 16.516 16.516 16.516h16.516v84.406c-4.806 2.172-8.721 6.152-10.636 11.264l-20.092 53.586c-1.528 4.088-2.304 8.365-2.304 12.717 0 18.878 14.575 34.254 33.032 35.898v16.838h-10.066c-12.66 0-22.966 10.307-22.966 22.966 0 1.866.231 3.724.685 5.566l4.691 18.771c2.766 11.041 12.651 18.762 24.039 18.762h482.585v-16.516h-16.516v-34.552c9.588-3.419 16.516-12.503 16.516-23.255v-74.323h-16.516v74.323c0 4.558-3.708 8.258-8.258 8.258h-57.806v16.516h16.516v33.032h-49.548v-66.065h41.29c13.659 0 24.774-11.115 24.774-24.774s-11.115-24.774-24.774-24.774h-132.13c-13.659 0-24.774 11.115-24.774 24.774s11.115 24.774 24.774 24.774h41.29v66.065h-49.548v-33.032h16.516v-16.516h-57.806c-4.55 0-8.258-3.7-8.258-8.258v-74.323h-16.516v74.323c0 10.752 6.929 19.836 16.516 23.255v34.552h-33.032v-150.165c2.593.925 5.351 1.519 8.258 1.519 13.659 0 24.774-11.115 24.774-24.774v-74.323h-181.677v74.323c0 13.659 11.115 24.774 24.774 24.774 2.907 0 5.665-.595 8.258-1.519v150.165h-22.57c.256-.735.487-1.486.677-2.246l4.691-18.771c.454-1.842.685-3.7.685-5.566 0-12.66-10.306-22.966-22.966-22.966h-10.066v-16.838c18.457-1.643 33.032-17.02 33.032-35.898 0-4.352-.776-8.63-2.304-12.726l-20.092-53.57c-1.916-5.112-5.83-9.092-10.636-11.272v-84.406h412.903v132.129h16.517zm-16.516 99.097h16.516v33.032h-16.516zm-165.162-57.807c0-4.558 3.708-8.258 8.258-8.258h132.129c4.55 0 8.258 3.7 8.258 8.258s-3.708 8.258-8.258 8.258h-132.129c-4.55 0-8.258-3.699-8.258-8.258zm66.065 24.774h16.516v66.065h-16.516zm-99.097 33.033h16.516v33.032h-16.516zm-148.645-148.646h16.516v8.258c0 4.558-3.708 8.258-8.258 8.258s-8.258-3.7-8.258-8.258zm49.548-16.516h-16.516v-33.032h16.516zm16.516-33.032h16.516v33.032h-16.516zm-49.548 33.032h-16.516v-33.032h16.516zm16.516 16.516h16.516v8.258c0 4.558-3.708 8.258-8.258 8.258s-8.258-3.7-8.258-8.258zm33.032 0h16.516v8.258c0 4.558-3.708 8.258-8.258 8.258s-8.258-3.7-8.258-8.258zm41.291 16.517c-4.55 0-8.258-3.7-8.258-8.258v-8.258h16.516v8.258c0 4.558-3.708 8.258-8.258 8.258zm8.258-33.033h-16.516v-33.032h16.516zm-132.129-33.032v33.032h-16.516v-33.032zm-8.258 66.065c-4.55 0-8.258-3.7-8.258-8.258v-8.258h16.516v8.258c0 4.558-3.708 8.258-8.258 8.258zm24.774 82.58h16.516v-16.516h-16.516v-51.068c2.593.925 5.351 1.519 8.258 1.519 6.367 0 12.123-2.486 16.516-6.441 4.393 3.964 10.149 6.441 16.516 6.441s12.123-2.486 16.516-6.441c4.393 3.964 10.149 6.441 16.516 6.441 2.907 0 5.665-.595 8.258-1.519v150.165h-82.581v-82.581zm-49.548 55.998c0 .52-.066 1.049-.19 1.561l-4.691 18.754c-.925 3.691-4.22 6.268-8.019 6.268h-23.75c-3.79 0-7.094-2.577-8.01-6.251l-4.682-18.754c-.14-.529-.206-1.049-.206-1.577 0-3.551 2.89-6.45 6.45-6.45h36.649c3.558 0 6.449 2.898 6.449 6.449zm-1.256-82.63c.834 2.238 1.255 4.567 1.255 6.928 0 10.868-8.836 19.704-19.704 19.704h-10.14c-10.868 0-19.704-8.836-19.704-19.704 0-2.362.421-4.691 1.255-6.92l20.092-53.587c.537-1.42 1.908-2.37 3.427-2.37s2.89.95 3.427 2.378zm430.675-287.174v49.548h-247.742v-49.548zm-445.936-82.581h181.677l.008 165.161h-181.685zm-16.516 82.581v49.548h-16.516v-49.548zm-16.516 66.064h16.516v16.516c0 9.109 7.407 16.516 16.516 16.516h181.677c9.109 0 16.516-7.407 16.516-16.516v-16.516h247.742v49.548h-478.967z"/><path d="m445.935 363.355v-115.613h-181.677v115.613zm-16.516-16.516h-66.065v-82.581h66.065zm-148.645-82.581h66.065v82.581h-66.065z"/></g></g></svg>