<?xml version="1.0" encoding="UTF-8" standalone="no"?>
<!-- Created with Inkscape (http://www.inkscape.org/) -->

<svg
   version="1.1"
   id="svg843"
   xml:space="preserve"
   width="682.66669"
   height="682.66669"
   viewBox="0 0 682.66669 682.66669"
   xmlns="http://www.w3.org/2000/svg"
   xmlns:svg="http://www.w3.org/2000/svg"><defs
     id="defs847"><clipPath
       clipPathUnits="userSpaceOnUse"
       id="clipPath857"><path
         d="M 0,512 H 512 V 0 H 0 Z"
         id="path855" /></clipPath></defs><g
     id="g849"
     transform="matrix(1.3333333,0,0,-1.3333333,0,682.66667)"><g
       id="g851"><g
         id="g853"
         clip-path="url(#clipPath857)"><g
           id="g859"
           transform="translate(468.4297,146.5942)"><path
             d="m 0,0 c 0,-12.789 -10.367,-23.156 -23.156,-23.156 h -378.547 c -12.788,0 -23.155,10.367 -23.155,23.156 v 218.811 c 0,12.789 10.367,23.156 23.155,23.156 H -23.156 C -10.367,241.967 0,231.6 0,218.811 Z M -15.653,-58.754 C 13.475,-55.056 36.07,-30.117 36.07,0 v 218.811 c 0,32.658 -26.569,59.227 -59.226,59.227 h -320.058 m -36.346,0 h -22.143 c -32.657,0 -59.227,-26.569 -59.227,-59.227 L -460.93,0 c 0,-32.658 26.57,-59.227 59.227,-59.227 h 350.672"
             style="fill:none;stroke:#000000;stroke-width:15;stroke-linecap:round;stroke-linejoin:round;stroke-miterlimit:10;stroke-dasharray:none;stroke-opacity:1"
             id="path861" /></g><g
           id="g863"
           transform="translate(106.979,213.5269)"><path
             d="M 0,0 C 23.458,0 42.473,19.016 42.473,42.473 42.473,65.93 23.458,84.946 0,84.946"
             style="fill:none;stroke:#000000;stroke-width:15;stroke-linecap:round;stroke-linejoin:round;stroke-miterlimit:10;stroke-dasharray:none;stroke-opacity:1"
             id="path865" /></g><g
           id="g867"
           transform="translate(44.5713,184.8906)"><path
             d="M 0,0 H 62.408 V 142.218 H 0"
             style="fill:none;stroke:#000000;stroke-width:15;stroke-linecap:round;stroke-linejoin:round;stroke-miterlimit:10;stroke-dasharray:none;stroke-opacity:1"
             id="path869" /></g><g
           id="g871"
           transform="translate(405.0215,213.5269)"><path
             d="m 0,0 c -23.457,0 -42.474,19.016 -42.474,42.473 0,23.457 19.017,42.473 42.474,42.473"
             style="fill:none;stroke:#000000;stroke-width:15;stroke-linecap:round;stroke-linejoin:round;stroke-miterlimit:10;stroke-dasharray:none;stroke-opacity:1"
             id="path873" /></g><g
           id="g875"
           transform="translate(467.4297,184.8906)"><path
             d="M 0,0 H -62.408 V 142.218 H 0"
             style="fill:none;stroke:#000000;stroke-width:15;stroke-linecap:round;stroke-linejoin:round;stroke-miterlimit:10;stroke-dasharray:none;stroke-opacity:1"
             id="path877" /></g><g
           id="g879"
           transform="translate(298.2783,256)"><path
             d="m 0,0 c 0,23.349 -18.929,42.278 -42.278,42.278 -23.349,0 -42.278,-18.929 -42.278,-42.278 0,-23.35 18.929,-42.278 42.278,-42.278 C -18.929,-42.278 0,-23.35 0,0 Z"
             style="fill:none;stroke:#000000;stroke-width:15;stroke-linecap:round;stroke-linejoin:round;stroke-miterlimit:10;stroke-dasharray:none;stroke-opacity:1"
             id="path881" /></g><g
           id="g883"
           transform="translate(256.0005,124.4385)"><path
             d="M 0,0 V 263.123"
             style="fill:none;stroke:#000000;stroke-width:15;stroke-linecap:round;stroke-linejoin:round;stroke-miterlimit:10;stroke-dasharray:none;stroke-opacity:1"
             id="path885" /></g></g></g></g></svg>
