<?xml version="1.0"?>
<svg xmlns="http://www.w3.org/2000/svg" viewBox="0 0 64 64" width="512" height="512"><g id="Modern_house-3" data-name="Modern house"><path d="M58,56H57V38h3a1,1,0,0,0,1-1V34a1,1,0,0,0-1-1H59V27h1a1,1,0,0,0,1-1V23a1,1,0,0,0-1-1H29V14a1,1,0,0,0-1.352-.937l-24,9A1,1,0,0,0,3,23V37a1,1,0,0,0,1,1H7V56H2a1,1,0,0,0,0,2H58a1,1,0,0,0,0-2ZM57,33H32V27H57Zm2-9v1H31a1,1,0,0,0-1,1v8a1,1,0,0,0,1,1H59v1H29V24ZM5,23.693l22-8.25V36H5ZM12,56V42h3V56Zm5,0V42h3V56Zm5,0V42h3V56Zm5,0V42h3V56Zm5,0V41a1,1,0,0,0-1-1H11a1,1,0,0,0-1,1V56H9V38H55V56Z"/><path d="M62,56H61a1,1,0,0,0,0,2h1a1,1,0,0,0,0-2Z"/><path d="M53,40H35a1,1,0,0,0-1,1V51a1,1,0,0,0,1,1H53a1,1,0,0,0,1-1V41A1,1,0,0,0,53,40ZM36,50V42h4v8Zm6,0V42h4v8Zm10,0H48V42h4Z"/><path d="M25,35a1,1,0,0,0,1-1V26a1,1,0,0,0-1-1H8a1,1,0,0,0-1,1v8a1,1,0,0,0,1,1Zm-1-8v6H20V27Zm-6,0v6H15V27ZM9,27h4v6H9Z"/><path d="M35,17h7a.929.929,0,0,0,.5-.145,3.5,3.5,0,0,0-.618-6.834,3.991,3.991,0,0,0-7.346-.994A4,4,0,0,0,35,17Zm-.035-6,.147.016a.992.992,0,0,0,1.01-.669A1.993,1.993,0,0,1,40,10.958c0,.033-.005.067-.005.093a1,1,0,0,0,1.2.98A1.528,1.528,0,0,1,43,13.5a1.5,1.5,0,0,1-1.2,1.47,1.088,1.088,0,0,0-.112.03H35a2,2,0,0,1-.035-4Z"/></g></svg>
