<svg id="Capa_1" enable-background="new 0 0 480.681 480.681" height="512" viewBox="0 0 480.681 480.681" width="512" xmlns="http://www.w3.org/2000/svg"><g><g id="_x34_8x48_px_20_"><g><g><path d="m40.057 80.113c-22.132 0-40.057-17.925-40.057-40.056s17.925-40.057 40.057-40.057 40.057 17.925 40.057 40.057-17.926 40.056-40.057 40.056zm0-60.085c-11.016 0-20.028 9.013-20.028 20.028s9.013 20.028 20.028 20.028 20.028-9.013 20.028-20.028-9.013-20.028-20.028-20.028z" fill="#4c4c4c"/></g><g><path d="m40.057 480.681c-22.132 0-40.057-17.926-40.057-40.057s17.925-40.057 40.057-40.057 40.057 17.925 40.057 40.057c-.001 22.131-17.926 40.057-40.057 40.057zm0-60.085c-11.016 0-20.028 9.013-20.028 20.028 0 11.016 9.013 20.028 20.028 20.028s20.028-9.013 20.028-20.028c0-11.016-9.013-20.028-20.028-20.028z" fill="#4c4c4c"/></g><g><path d="m440.624 480.681c-22.131 0-40.057-17.925-40.057-40.057 0-22.131 17.925-40.057 40.057-40.057 22.131 0 40.057 17.925 40.057 40.057 0 22.131-17.926 40.057-40.057 40.057zm0-60.085c-11.016 0-20.028 9.013-20.028 20.028 0 11.016 9.013 20.028 20.028 20.028 11.016 0 20.028-9.013 20.028-20.028 0-11.016-9.012-20.028-20.028-20.028z" fill="#4c4c4c"/></g><g><path d="m440.624 80.113c-22.131 0-40.057-17.925-40.057-40.057s17.926-40.056 40.057-40.056 40.057 17.925 40.057 40.057-17.926 40.056-40.057 40.056zm0-60.085c-11.016 0-20.028 9.013-20.028 20.028s9.013 20.028 20.028 20.028c11.016 0 20.028-9.013 20.028-20.028s-9.012-20.028-20.028-20.028z" fill="#4c4c4c"/></g><g><path d="m70.099 30.043h340.482v20.028h-340.482z" fill="#4c4c4c"/></g><g><path d="m30.043 70.099h20.028v340.482h-20.028z" fill="#4c4c4c"/></g><g><path d="m70.099 430.61h340.482v20.028h-340.482z" fill="#4c4c4c"/></g><g><path d="m430.61 70.099h20.028v340.482h-20.028z" fill="#4c4c4c"/></g><g><path d="m330.468 350.496h-180.255v-100.141h-40.057v-23.133l130.184-109.255 130.184 109.255v23.133h-40.057v100.141zm-160.227-20.028h140.199v-100.142h32.546l-102.646-86.122-102.645 86.122h32.546z" fill="#4c4c4c"/></g></g></g></g></svg>